# xmcd CD database file
#
# Track frame offsets:
#	150
#	16587
#	29913
#	49395
#	79500
#	93883
#	108142
#	135400
#	148452
#
# Disc length: 2226 seconds
#
# Revision: 1
# Processed by: cddbd v1.4PL0 Copyright (c) Steve Scherf et al.
# Submitted via: CDex 1.51
#
DISCID=7008b009
DTITLE=Various Artist - Bossa Jazz DeLuxe
DYEAR=2003
DGENRE=Jazz
TTITLE0=Aquarius
TTITLE1=Marta e Romão
TTITLE2=Tereza My Love
TTITLE3=Outra Vez
TTITLE4=Moça Flor
TTITLE5=Coisa nº 9
TTITLE6=Wave
TTITLE7=Desafinado
TTITLE8=Corcovado
EXTD=YEAR: 2003
EXTT0=
EXTT1=
EXTT2=
EXTT3=
EXTT4=
EXTT5=
EXTT6=
EXTT7=
EXTT8=
PLAYORDER=
